<?xml version="1.0" encoding="utf-8"?>
<!-- Generator: Adobe Illustrator 21.0.0, SVG Export Plug-In . SVG Version: 6.00 Build 0)  -->
<svg version="1.1" id="Layer_1" xmlns="http://www.w3.org/2000/svg" xmlns:xlink="http://www.w3.org/1999/xlink" x="0px" y="0px"
	 width="1400px" height="980px" viewBox="0 0 1400 980" enable-background="new 0 0 1400 980" xml:space="preserve">
<g>
	<g>
		<g>
			<rect id="XMLID_7_" fill="#7E4249" width="1400" height="980"/>
		</g>
	</g>
	<path fill="#370211" d="M847.5,480.7c-11.5-32-25.8-63-42.9-92.3c-27.5-47.1-62-89.8-96.3-132.2c-26.5-32.7-54.1-66.4-91.6-85.4
		c-23.3-11.8-49.5-17.4-72.5-29.9c-23-12.4-43.7-34.9-42.4-61c1.7-36.7,42.3-57,76.8-69.5c9.6-3.5,19.3-7,29-10.4H0v980h854.1
		c-1.8-3.2-3.6-6.5-5.2-9.8c-10-19.9-17.8-41.9-34.6-56.5c-6.6-5.7-14.4-10.2-20.3-16.4c0.8-0.7,1.2-1.9,1.3-2.9
		c0.5-4.9-1.4-9-4.5-12.2c4.1-3.4,7.3-8,8.5-13.2c0.4-1.5,0.5-2.8,0.5-4.1c0.1,0,0.2,0,0.3,0c-0.1-0.1-0.2-0.2-0.3-0.2
		c-0.2-4.9-3-8.6-7.2-10.7c-0.6-2.9-0.6-6,0-9.3c3.2-7.4,9.2-14.4,13.4-19.7c8.9-11.3,16.7-23.1,24.9-34.9
		c9.8-14.1,19.4-28.1,25.8-44.1c6.1-15.1,9.1-31.3,9.7-47.5c0-0.3,0-0.6,0-0.8C881.7,627.5,872.1,549.4,847.5,480.7z"/>
	<path fill="#FFFFFF" d="M0,0v980h1400V0H0z M1371.7,891.9c0,37.8-30.6,68.4-68.4,68.4H96.6c-37.8,0-68.4-30.6-68.4-68.4V88.1
		c0-37.8,30.6-68.4,68.4-68.4h1206.7c37.8,0,68.4,30.6,68.4,68.4V891.9z"/>
	<g>
		<path fill="#952E1F" d="M762.2,353.3c-3.4-6.7-11.7-12.4-19.3-9.2c-6.3,2.6-10.9,6.8-14.7,11.8c-5.6,4.5-9.9,10.7-12.2,17.4
			c-1.3,3.9-2,7.6-2.3,11.1c-1.8,4.6-3.6,9.2-5.4,13.8c-1,2.5-2,5-3,7.5c-0.5,1.1-0.9,2.2-1.4,3.3c0,0,0,0,0,0
			c-0.1,0.3-0.3,0.7-0.3,0.8c-1.6,3.6-3.1,7.2-5.1,10.5c-3.1,5.3-7.3,10-10.9,15.1c-4.6,6.6-9.1,13.4-12.5,20.7
			c-3.8,7.9-6.2,16.3-9.2,24.5c-0.2,0.5-0.4,0.9-0.5,1.4c-1,1.1-2.1,2.3-3.1,3.4c-23.6-13.4-47.3-26.8-70.9-40.3
			c-10.9-6.2-22.2-12.7-29.6-22.9c-6.6-9.1-9.4-20.3-14.3-30.4c-15.3-31.6-52.8-50.9-87.4-44.9c12.4,4.5,24.8,8.9,37.2,13.4
			c-9,3-18.9,0.7-28.4,0.6s-20.6,3.5-23.4,12.6c3.5,0.3,7,0.6,10.5,0.9c-0.6,0.9,0.9,4.6,3.3,5.1c21.9,4.5,41.7,18.3,53.5,37.3
			c5.2,8.3,9.4,18.1,18,22.8c5.4,2.9,11.7,3.4,17.5,5.4c12.7,4.4,21.7,15.5,30.7,25.6c30.8,34.5,70.3,61.3,113.7,77.2
			c2.8,1,5.7,2,8.6,1.4c3.5-0.7,6.1-3.4,8.4-6c19.3-23,25.6-54,39.5-80.6c10.7-20.6,26.1-39.3,30.6-62
			C783,383.3,776,362.4,762.2,353.3z"/>
		<path fill="#CD7F62" d="M892,416.6c-1.1-33.6-8.3-67.9-27.3-95.6c-25.5-37.2-68.6-57.9-112.5-69.5c-9.3-6.9-18.3-14.1-27-21.7
			c-7.8-6.8-15.7-14.3-19.6-23.9c-6.8-16.9-0.1-37-7.3-53.8c-6.8-15.8-24.8-24.6-42-25s-33.8,6.1-49.4,13.5
			c-9.8,4.6-19.6,9.7-27.3,17.3c-7.8,7.5-12,21-12.9,31.8c-1,12.7-1,25.6,0.2,38.3c0.4,5,1.4,10.5,5.4,13.5c2.5,1.9,5.8,2.4,8.3,4.3
			c4.3,3.2,5.1,9.2,5.1,14.5c0.1,9.3-1.2,18.6-3.6,27.5c-0.6,2-1.1,4.4,0.1,6.1c1.6,2.1,5,1.7,7.3,0.5c4.5-2.3,8.1-6.4,12.9-7.8
			c4.8-1.5,11.6,2.1,10.3,7c2.7,0.6,5.5,1.2,8.2,1.8c5.3,7.6,10.6,15.1,15.8,22.7c1.1,1.6,2.3,3.3,4,4.2c1.8,1,4.1,1,6.1,0.7
			c8.6-1.6,14.4-9.3,19.9-16c5.6-6.7,13.2-13.5,21.8-12.2c4.5,0.7,8.3,3.5,11.9,6.3c7.5,5.9,14.7,12,21.7,18.3
			c-0.5,34.8-10,69.4-5,104.3c3,20.7,11,40.5,13.6,61.3c4.1,33-5.7,65.8-12.2,98.4c-2.8,13.8-4.9,27.8-6.5,41.8
			c7.5-2,14.9-3.5,22-4.8c21.5-4,43.5-5.4,65.4-5.4c19.9,0,39.7,1.8,59.6,2.6c8.6,0.3,0,0.3,8.6,0.3c-1.7-33.6,15.9-67.1,18.4-100.6
			C888.6,483.6,893.2,450.1,892,416.6z"/>
		<path fill="#AF5031" d="M766.7,459.1c9.3-11.2,14.2-25.9,13.7-40.4c-23.9-2.8-45-22.4-49.5-46.1c-5.6-29.1,11.7-58.4,8.7-87.9
			c-2.4-23.6-18.8-45.1-40.8-53.7c-6.5,15.5,8.1,30.9,14.9,46.2c5.2,11.7,5.9,24.9,3.7,37.7c1.6,1.4,3.2,2.9,4.8,4.3
			c-0.5,34.8-10,69.4-5,104.3c3,20.7,11,40.5,13.6,61.3c4.1,33-5.7,65.8-12.2,98.4c-2.8,13.8-4.9,27.8-6.5,41.8
			c7.5-2,14.9-3.5,22-4.8c7-1.3,14.1-2.3,21.1-3.1c0.9-9.1,2.3-18.1,4.2-27.1c4.9-23.6,13.2-47.3,10.1-71.2c-0.4-2.8-1.8-6.4-4.7-6
			c-2,0.3-3,2.4-3.8,4.3c-4.2,11-8.5,22-12.7,33c-7.4-22.7-14.5-49.2-1.5-69.2C752.4,472.6,760.5,466.6,766.7,459.1z"/>
		<path fill="#AF5031" d="M669.4,235.7c-16.8,21.3-0.9,60.4-23.7,75.2c1.3-14.2-8-27-16.9-38.2c-12.5-15.7-24.9-31.5-37.4-47.2
			c9.1-17.5,1.2-38.7-7.2-56.5c-1.8-3.9-3.4-7.6-4.7-11c-7.7,7.6-11.9,20.9-12.7,31.6c-1,12.7-1,25.6,0.2,38.3
			c0.4,5,1.4,10.5,5.4,13.5c2.5,1.9,5.8,2.4,8.3,4.3c4.3,3.2,5.1,9.2,5.1,14.5c0.1,9.3-1.2,18.6-3.6,27.5c-0.6,2-1.1,4.4,0.1,6.1
			c1.6,2.1,5,1.7,7.3,0.5c4.5-2.3,8.1-6.4,12.9-7.8c4.8-1.5,11.6,2.1,10.3,7c2.7,0.6,5.5,1.2,8.2,1.8c5.3,7.6,10.6,15.1,15.8,22.7
			c1.1,1.6,2.3,3.3,4,4.2c1.8,1,4.1,1,6.1,0.7c8.6-1.6,14.4-9.3,19.9-16c5.6-6.7,13.2-13.5,21.8-12.2c0.5,0.1,0.9,0.2,1.3,0.3
			C688.8,273.5,682.3,252.5,669.4,235.7z"/>
		<path fill="#CD7F62" d="M894.5,506.6c-0.3-12.5-2.4-24.8-5-37.1c-0.6-3-1.2-6-1.7-9.1c-0.2-1.1-0.3-2.2-0.5-3.4
			c0-0.3-0.1-0.6-0.1-0.8c0-0.1,0-0.3-0.1-0.4c-0.8-6.3-1.4-12.6-2.1-19c-1.4-14-2.8-28-5.4-41.8c-4.7-25-15.2-48.3-32.3-67.3
			c-14.6-16.3-35-27.9-57.4-26.2c-11.3,0.8-36.2,78.6-13,97.2c7.9,6.3,17.1,11.2,23.6,19c12.9,15.8,10.8,38.4,12,58.8
			c1.1,20.3,6.2,40.4,14.9,58.8c3.1,6.5,6.7,13,7.6,20.2c2.4,18-12,33.3-22.4,48.2c-17.3,24.7-61,116-70.2,127.7
			c-5.1,6.4-9.2,13.1-12.9,20c-2.8,1.9-5.6,3.7-8.3,5.7c-9.9,4.9-20.6,7.7-30.6,12.3c-15.6,7.1-29.3,18.5-39.1,32.6
			c-4.1,5.9-5.9,16.5,1.1,18.2c4.3-15.2,17-27.8,32.3-31.8c-11.7,16.5-19.4,35.8-22.4,55.8c7.1-1.6,12.5-8.6,12.3-15.8
			c0.8,8.1,1.6,16.3,2.4,24.4c9.4-6,17.9-13.5,24.9-22.2c-1,6,0.3,12.4,3.7,17.4c3.8-7.7,7.7-15.3,11.5-23c0.5-0.4,1-0.8,1.5-1.2
			c17.8-16.7,40.4-35.1,38.4-62.1c0-0.2,0-0.4-0.1-0.6c11.2-9.2,20.9-19.5,28.9-31.9c0.5-0.8,1.1-1.6,1.6-2.4
			c12.6-12.1,23.2-25.8,34-39.5c11-13.9,23-26.7,34.5-40.2c13.7-16,27-33.2,29.4-54.5c0.3-2.6,6.7-7.8,6.7-8.5
			c2.9-2.1,0.4-8.7,1.3-12.8c2.9-14-1.3-26.1-0.9-40.4c0.2-1.2,0.4-2.3,0.6-3.5C894.1,520.6,894.7,513.7,894.5,506.6z"/>
		<path fill="#AF5031" d="M709.5,807.4c-3-2.3-6.4-6.3-4-9.3c-3.6-0.2-7.2-0.4-10.7-0.5c3.4-19.6,25-29.1,41.4-40.3
			c49.6-33.9,63.2-102.4,107-143.6c3.7-3.5,7.7-6.8,10-11.3c2.2-4.2,2.8-9.1,3.5-13.8c2.8-18.3,8.8-36,11.4-54.4
			c2.7-18.3,1.7-38.2-8.3-53.8c-6.8-10.6-17.8-19.9-18.2-32.5c-0.3-11.3,8.4-21,10.3-32.2c2.4-13.6-5.6-26.9-15.6-36.4
			c-10-9.5-22.1-16.5-31.7-26.4c-8.9-9.1-17.3-27.3-20.7-46.1c-11.9,17.9-26.7,76.1-7.1,91.9c7.9,6.3,17.1,11.2,23.6,19
			c12.9,15.8,10.8,38.4,12,58.8c1.1,20.3,6.2,40.4,14.9,58.8c3.1,6.5,6.7,13,7.6,20.2c2.4,18-12,33.3-22.4,48.2
			c-17.3,24.7-61,116-70.2,127.7c-5.1,6.4-9.2,13.1-12.9,20c-2.8,1.9-5.6,3.7-8.3,5.7c-9.9,4.9-20.6,7.7-30.6,12.3
			c-15.6,7.1-29.3,18.5-39.1,32.6c-4.1,5.9-5.9,16.5,1.1,18.2c4.3-15.2,17-27.8,32.3-31.8c-11.7,16.5-19.4,35.8-22.4,55.8
			c7.1-1.6,12.5-8.6,12.3-15.8c0.8,8.1,1.6,16.3,2.4,24.4c9.4-6,17.9-13.5,24.9-22.2c-1,6,0.3,12.4,3.7,17.4
			c3.8-7.7,7.7-15.3,11.5-23c0.5-0.4,1-0.8,1.5-1.2c2-1.9,4.1-3.8,6.2-5.7C719.6,814.9,714.5,811.2,709.5,807.4z"/>
		<path fill="#AF5031" d="M645.7,236.3c-0.2,0.7-1.5,3.9-2.8,5c0,0,0-0.1,0-0.1c-0.2-4.9-2.7-8.9-3.8-13.3c0.7,0.4,1.6,0.1,2-0.8
			c2-4.7,0.2-8.5-1.1-13.1c-1.5-5.3-1.7-10.8-4.8-15.2c-0.7-1-2-0.9-2.7,0c-4.1,5.4-3.3,22.1,0.5,27.5c0.7,0.9,1.7,0.1,1.7-0.9
			c0.4-5.1-2.2-14.4-0.9-20.2c1,2.8,1.3,5.9,2.2,8.8c0.7,2.5,2.4,5.4,2.7,8.2c-0.3-0.3-0.6-0.6-0.9-0.9c-1-0.9-2,0.3-2.1,1.6
			c-0.5,6.4,3.3,10.9,4,16.8c-0.1,0-0.2,0.1-0.4,0.1c-1,0.3-1.3,1.8-0.9,2.9c3,7.9,8.2,1,10.1-4.2
			C649.5,236,646.6,233.8,645.7,236.3z"/>
		<path fill="#370211" d="M670.6,132.1c-0.8-0.2-1.6-0.3-2.3,0.1c-1.6,1-0.3,3.5,1.2,4.8c9.4,8.3,19.7,17.1,22.5,29.3
			c0.3,1.4,1.2,3.2,2.5,2.7c0.6-0.2,0.9-0.9,1.1-1.5C701.5,151,685.5,135.4,670.6,132.1z"/>
	</g>
	<g>
		<g>
			<path fill="#FFDFA9" d="M1137.5,200.1c-54,0-106.9-10.6-155.1-31.1c-16.3-7-32.4-15.1-48-23c-29.8-15.1-60.7-30.8-93.6-38.2
				c-56.2-12.7-117.6-0.1-164.3,33.7l-2.3-3.2c47.6-34.4,110.2-47.2,167.5-34.3c33.4,7.5,64.5,23.3,94.6,38.6
				c15.5,7.9,31.6,16,47.8,22.9c120.8,51.6,269.1,37.1,377.7-36.8c8.5-5.8,18-12.8,22.9-22.7l3.6,1.8c-5.3,10.8-15.3,18.2-24.2,24.3
				c-54.1,36.8-118.4,59.7-186.1,66.3C1164.3,199.5,1150.9,200.1,1137.5,200.1z"/>
		</g>
		<g>
			<path fill="#FFDFA9" d="M1223.7,248.3c-34.3,0-70.4-7.2-106.6-21.5c-41.8-16.5-83.1-41.5-133.8-81c-2.9-2.2-5.7-4.5-8.6-6.7
				c-26.2-20.6-53.4-41.9-85.2-51.8C848,74.4,807,83.1,780,92.8c-37.8,13.5-71.8,36.8-97.1,55.5l-2.4-3.2
				c25.6-18.9,59.8-42.4,98.1-56.1c27.6-9.9,69.5-18.8,112-5.6c32.5,10.1,59.9,31.6,86.4,52.5c2.9,2.2,5.7,4.5,8.6,6.7
				c50.4,39.2,91.4,64.1,132.9,80.4c52.7,20.8,105.3,26.5,152.1,16.3c53.5-11.6,98.5-44.8,120.3-88.7l3.6,1.8
				c-22.4,45-68.4,79-123,90.9C1256.1,246.7,1240.1,248.3,1223.7,248.3z"/>
		</g>
		<g>
			<path fill="#FFDFA9" d="M1002.2,209.9c-34.4,0-71.4-10.4-110.2-31c-9.5-5.1-19-10.6-28.2-16c-22.6-13.3-46-27-71.5-34
				c-33-9.1-78-4.4-98.9,27.3L690,154c22-33.3,69-38.4,103.3-28.9c26,7.1,49.6,21,72.4,34.4c9.2,5.4,18.6,10.9,28.1,15.9
				c42.4,22.5,82.6,32.7,119.4,30.2c48.3-3.3,92-28.2,134.3-52.4c40.9-23.3,83.2-47.5,130.1-52.6c40.5-4.4,82.9,6.4,116.4,29.7
				l-2.3,3.3c-32.7-22.7-74.1-33.3-113.7-29c-46.1,5-88,28.9-128.5,52.1c-42.7,24.3-86.8,49.5-136,52.9
				C1009.8,209.8,1006,209.9,1002.2,209.9z"/>
		</g>
	</g>
</g>
</svg>
